<?xml version="1.0" encoding="UTF-8"?>
<svg id="Capa_1" data-name="Capa 1" xmlns="http://www.w3.org/2000/svg" version="1.1" viewBox="0 0 170 51">
  <defs>
    <style>
      .cls-1 {
        fill: #1d1d1b;
        stroke-width: 0px;
      }

      .cls-2 {
        fill: #6f6f6e;
        font-family: Raleway-Bold, Raleway;
        font-size: 10px;
        font-weight: 700;
      }
    </style>
  </defs>
  <g>
    <path class="cls-1" d="M53.5,16.2l-1.7.8.4-.6v10.4l-.4-.6,1.7.7v2.1h-6.8v-2.1l1.6-.7-.4.5v-10.4l.5.6-1.8-.7v-2.1h6.8c0-.1,0,2,0,2Z"/>
    <path class="cls-1" d="M61.4,14.1c1.1,0,2.1.2,3,.5.9.3,1.6.8,2.2,1.4.6.6,1,1.4,1.3,2.2.3.9.5,1.9.5,3.1,0,1.7-.3,3.1-.9,4.2s-1.4,2-2.6,2.6c-1.1.6-2.5.9-4,.9h-6.4v-2.1l1.8-.7-.5.8v-10.8l.6.8-1.8-.7v-2.1h5.6c0-.1,1.4-.1,1.4-.1ZM61.1,25.9c.3,0,.6,0,.9,0,.3,0,.6-.2.9-.5.3-.3.5-.7.7-1.3.2-.6.3-1.5.3-2.6s0-1.9-.2-2.5c-.2-.6-.4-1-.6-1.3s-.5-.4-.8-.5c-.3,0-.5,0-.8,0h-1.9l.6-.6v10.1l-.6-.6h1.7Z"/>
    <path class="cls-1" d="M78.1,24.5h2.5v4.4h-11.3v-2.1l1.8-.7-.5.8v-10.8l.5.8-1.8-.7v-2.1h5.5c0-.1,5.6-.1,5.6-.1v4.2h-2.5l-.5-1.7.8.5h-3.9l.6-.6v4.1l-.6-.6h4.4v2.9h-4.4l.6-.7v4.4l-.6-.6h4.1l-.8.6.5-2Z"/>
    <path class="cls-1" d="M95.8,27.1l-1.1-1,1.6.7v2.1h-6.6v-2.1l1.4-.7-.4.6-.6-2.1.6.5h-4.7l.4-.5-.6,2v-.4c0,0,1.2.6,1.2.6v2.1h-5.8v-2.1l1.6-.7-.9.8,4.8-12.9h4.4c0-.1,4.6,13,4.6,13ZM87.2,22.8l-.3-.5h3.3l-.4.7-1.6-6.6h1s-2,6.5-2,6.5Z"/>
    <path class="cls-1" d="M105.2,23.8h2.5v5.1h-11v-2.1l1.7-.7-.4.8v-10.8l.4.8-1.7-.7v-2.1h6.9c0-.1,0,2,0,2l-1.7.8.4-.8v10.4l-.6-.6h3.5l-.5.7.6-2.8Z"/>
    <path class="cls-1" d="M115,29.3c-1.5,0-2.7-.3-3.7-.9-1-.6-1.8-1.4-2.3-2.6-.5-1.1-.8-2.5-.8-4.1s.2-2.5.5-3.5c.3-1,.8-1.8,1.4-2.5s1.4-1.2,2.3-1.5c.9-.3,1.9-.5,3-.5s2.1.2,3,.5c.9.3,1.6.8,2.2,1.5.6.6,1,1.4,1.3,2.3.3.9.5,2,.5,3.1s-.3,3.1-.9,4.3c-.6,1.2-1.4,2.1-2.6,2.8s-2.4,1-4,1ZM115.3,26c.5,0,1-.1,1.4-.4.4-.3.7-.7.9-1.4s.3-1.6.3-2.9,0-2-.3-2.7c-.2-.6-.4-1.1-.8-1.3-.4-.3-.8-.4-1.4-.4s-1,.1-1.3.4c-.4.2-.6.7-.8,1.4-.2.7-.3,1.6-.3,2.9s0,2,.2,2.6c.2.6.4,1.1.8,1.4.4.3.8.4,1.4.4Z"/>
    <path class="cls-1" d="M130.4,29.3c-1.4,0-2.6-.3-3.7-.9s-1.9-1.5-2.5-2.6c-.6-1.1-.9-2.6-.9-4.2s.3-3,.9-4.2c.6-1.2,1.4-2.1,2.5-2.7,1.1-.6,2.4-.9,4-.9s1.8,0,2.7.3c.9.2,1.8.5,2.8.9l-.3,4.2h-2.5l-.7-2.3.7.5c-.4-.1-.8-.2-1.2-.3-.4,0-.7-.1-1.1-.1-.7,0-1.3.2-1.7.5s-.8.8-1.1,1.5c-.2.7-.4,1.5-.4,2.6s.2,2.5.7,3.3c.5.8,1.2,1.2,2.2,1.2s.5,0,.8,0c.3,0,.6-.1.9-.2l-.5.8v-3.4l.7.7-1.9-.5v-2.2h6.5c0-.1,0,2.1,0,2.1l-1.6.6.4-.7v4.9c-1,.4-2,.7-3,.9-1,.2-1.9.3-2.7.3Z"/>
    <path class="cls-1" d="M144.7,29.3c-1.5,0-2.7-.3-3.7-.9-1-.6-1.8-1.4-2.3-2.6-.5-1.1-.8-2.5-.8-4.1s.2-2.5.5-3.5c.3-1,.8-1.8,1.4-2.5s1.4-1.2,2.3-1.5c.9-.3,1.9-.5,3-.5s2.1.2,3,.5c.9.3,1.6.8,2.2,1.5.6.6,1,1.4,1.3,2.3.3.9.5,2,.5,3.1s-.3,3.1-.9,4.3c-.6,1.2-1.4,2.1-2.6,2.8s-2.4,1-4,1ZM145,26c.5,0,1-.1,1.4-.4.4-.3.7-.7.9-1.4s.3-1.6.3-2.9,0-2-.3-2.7c-.2-.6-.4-1.1-.8-1.3-.4-.3-.8-.4-1.4-.4s-1,.1-1.3.4c-.4.2-.6.7-.8,1.4-.2.7-.3,1.6-.3,2.9s0,2,.2,2.6c.2.6.4,1.1.8,1.4.4.3.8.4,1.4.4Z"/>
  </g>
  <text class="cls-2" transform="translate(46.2 41.5)"><tspan x="0" y="0">Ejemplo de Marca Gráfica</tspan></text>
  <g id="Icons">
    <g>
      <path class="cls-1" d="M25.4,39.2h-7.7c-.6,0-1.1.5-1.1,1.1s.5,1.1,1.1,1.1h7.7c.6,0,1.1-.5,1.1-1.1,0-.6-.5-1.1-1.1-1.1Z"/>
      <path class="cls-1" d="M19.6,45.5c.1,1,1,1.7,2,1.7s1.8-.7,2-1.7c1.3,0,2.4-1.2,2.4-2.5h-8.7c0,1.3,1.1,2.4,2.4,2.5Z"/>
      <path class="cls-1" d="M21.6,10c.8,0,1.4-.6,1.4-1.4v-3.3c0-.8-.6-1.4-1.4-1.4s-1.4.6-1.4,1.4v3.3c0,.8.6,1.4,1.4,1.4Z"/>
      <path class="cls-1" d="M12.1,12.1c.3.4.7.6,1.2.6s.6,0,.8-.3c.6-.5.8-1.4.3-2l-2-2.7c-.5-.6-1.4-.8-2-.3-.6.5-.8,1.4-.3,2l2,2.7Z"/>
      <path class="cls-1" d="M31,33.2c-.5-.6-1.4-.8-2-.3-.6.5-.8,1.4-.3,2l2,2.7c.3.4.7.6,1.2.6s.6,0,.8-.3c.6-.5.8-1.4.3-2l-2-2.7Z"/>
      <path class="cls-1" d="M8.6,17l-3.2-1c-.8-.2-1.6.2-1.8.9-.2.8.2,1.6.9,1.8l3.2,1c.1,0,.3,0,.4,0,.6,0,1.2-.4,1.4-1,.2-.8-.2-1.6-.9-1.8Z"/>
      <path class="cls-1" d="M38.6,26.7l-3.2-1c-.8-.2-1.6.2-1.8.9-.2.8.2,1.6.9,1.8l3.2,1c.1,0,.3,0,.4,0,.6,0,1.2-.4,1.4-1,.2-.8-.2-1.6-.9-1.8Z"/>
      <path class="cls-1" d="M7.7,25.7l-3.2,1c-.8.2-1.2,1.1-.9,1.8.2.6.8,1,1.4,1s.3,0,.4,0l3.2-1c.8-.2,1.2-1.1.9-1.8-.2-.8-1.1-1.2-1.8-.9Z"/>
      <path class="cls-1" d="M35,19.8c.1,0,.3,0,.4,0l3.2-1c.8-.2,1.2-1.1.9-1.8-.2-.8-1.1-1.2-1.8-.9l-3.2,1c-.8.2-1.2,1.1-.9,1.8.2.6.8,1,1.4,1Z"/>
      <path class="cls-1" d="M12.1,33.2l-2,2.7c-.5.6-.3,1.5.3,2,.3.2.6.3.8.3.4,0,.9-.2,1.2-.6l2-2.7c.5-.6.3-1.5-.3-2-.6-.5-1.5-.3-2,.3Z"/>
      <path class="cls-1" d="M30.7,7.7l-2,2.7c-.5.6-.3,1.5.3,2,.3.2.6.3.8.3.4,0,.9-.2,1.2-.6l2-2.7c.5-.6.3-1.5-.3-2-.6-.5-1.5-.3-2,.3Z"/>
      <path class="cls-1" d="M32,22.7c0-5.7-4.7-10.4-10.4-10.4s-10.4,4.7-10.4,10.4.8,4.6,2.2,6.4c1.2,1.5,2.4,3.2,3.4,4.9v3.5h9.5v-3.4c1-1.7,2.3-3.6,3.4-5,1.4-1.8,2.2-4,2.2-6.4Z"/>
    </g>
  </g>
</svg>